<svg xmlns="http://www.w3.org/2000/svg" viewBox="0 0 128 128" width="256" height="256">
<defs><linearGradient id="hb" x1="0" y1="0" x2="0" y2="1"><stop offset="0" stop-color="#4a4a58"/><stop offset="1" stop-color="#1c1c23"/></linearGradient><linearGradient id="hq" x1="0" y1="0" x2="1" y2="1"><stop offset="0" stop-color="#4a4a58"/><stop offset="1" stop-color="#1c1c23"/></linearGradient><clipPath id="hc"><rect x="28" y="24" width="72" height="82" rx="22"/></clipPath></defs>
<path d="M50 30 Q57.70 13.50 64 0 Q70.30 13.50 78 30 Z" fill="url(#hq)" stroke="#050507" stroke-width="4" stroke-linejoin="round" paint-order="stroke"/><path d="M59.52 30.00 L64.00 6.60 L68.48 30.00 Z" fill="#d42330"/><path d="M32 40 Q21.00 19.65 12 3 Q30.00 13.80 52 27 Z" fill="url(#hq)" stroke="#050507" stroke-width="4" stroke-linejoin="round" paint-order="stroke"/><path d="M38.80 35.58 L18.60 9.71 L45.20 31.42 Z" fill="#d42330"/><path d="M30 38 Q14.05 31.95 1 27 Q14.05 41.85 30 60 Z" fill="url(#hq)" stroke="#050507" stroke-width="4" stroke-linejoin="round" paint-order="stroke"/><path d="M30.00 45.48 L7.38 31.84 L30.00 52.52 Z" fill="#d42330"/><path d="M30 56 Q16.80 53.80 6 52 Q17.25 61.90 31 74 Z" fill="url(#hq)" stroke="#050507" stroke-width="4" stroke-linejoin="round" paint-order="stroke"/><path d="M30.34 62.12 L11.39 54.86 L30.66 67.88 Z" fill="#d42330"/><g transform="translate(128 0) scale(-1 1)"><path d="M32 40 Q21.00 19.65 12 3 Q30.00 13.80 52 27 Z" fill="url(#hq)" stroke="#050507" stroke-width="4" stroke-linejoin="round" paint-order="stroke"/><path d="M38.80 35.58 L18.60 9.71 L45.20 31.42 Z" fill="#d42330"/><path d="M30 38 Q14.05 31.95 1 27 Q14.05 41.85 30 60 Z" fill="url(#hq)" stroke="#050507" stroke-width="4" stroke-linejoin="round" paint-order="stroke"/><path d="M30.00 45.48 L7.38 31.84 L30.00 52.52 Z" fill="#d42330"/><path d="M30 56 Q16.80 53.80 6 52 Q17.25 61.90 31 74 Z" fill="url(#hq)" stroke="#050507" stroke-width="4" stroke-linejoin="round" paint-order="stroke"/><path d="M30.34 62.12 L11.39 54.86 L30.66 67.88 Z" fill="#d42330"/></g>
<path d="M31 37 L34.4 9.6 Q35.2 6.8 37.6 8.6 L57 27 Z" fill="url(#hq)" stroke="#050507" stroke-width="4" stroke-linejoin="round" paint-order="stroke"/><path d="M36.6 31 L38.4 15.4 L51 27 Q43 25.6 36.6 31 Z" fill="#f2b233" stroke="#050507" stroke-width="1.4" stroke-linejoin="round"/><g transform="translate(128 0) scale(-1 1)"><path d="M31 37 L34.4 9.6 Q35.2 6.8 37.6 8.6 L57 27 Z" fill="url(#hq)" stroke="#050507" stroke-width="4" stroke-linejoin="round" paint-order="stroke"/><path d="M36.6 31 L38.4 15.4 L51 27 Q43 25.6 36.6 31 Z" fill="#f2b233" stroke="#050507" stroke-width="1.4" stroke-linejoin="round"/></g>
<path d="M31 70 L19.5 91" stroke="#050507" stroke-width="11" stroke-linecap="round"/><path d="M31 70 L19.5 91" stroke="#4a4a58" stroke-width="6.4" stroke-linecap="round"/><ellipse cx="21.8" cy="86.8" rx="5.2" ry="2.6" fill="#f2b233" stroke="#050507" stroke-width="1.4" transform="rotate(28.7 21.8 86.8)"/><circle cx="18.4" cy="93.2" r="5.8" fill="#f8fafc" stroke="#050507" stroke-width="2.4"/><path d="M15.6 92 Q18.4 90.6 21.2 92" fill="none" stroke="#cbd5e1" stroke-width="1.2" stroke-linecap="round"/><g transform="translate(128 0) scale(-1 1)"><path d="M31 70 L19.5 91" stroke="#050507" stroke-width="11" stroke-linecap="round"/><path d="M31 70 L19.5 91" stroke="#4a4a58" stroke-width="6.4" stroke-linecap="round"/><ellipse cx="21.8" cy="86.8" rx="5.2" ry="2.6" fill="#f2b233" stroke="#050507" stroke-width="1.4" transform="rotate(28.7 21.8 86.8)"/><circle cx="18.4" cy="93.2" r="5.8" fill="#f8fafc" stroke="#050507" stroke-width="2.4"/><path d="M15.6 92 Q18.4 90.6 21.2 92" fill="none" stroke="#cbd5e1" stroke-width="1.2" stroke-linecap="round"/></g>
<path d="M42 100 L42 108" stroke="#050507" stroke-width="7" stroke-linecap="round"/><path d="M42 100 L42 108" stroke="#1c1c23" stroke-width="3.4" stroke-linecap="round"/><rect x="31.5" y="114.6" width="24" height="4.6" rx="2.3" fill="#050507"/><path d="M32.4 115.4 Q32 107.6 42.4 106.8 Q52.6 106.6 55 112.2 L55.4 115.4 Z" fill="#d42330" stroke="#050507" stroke-width="2.4" stroke-linejoin="round"/><path d="M36 110.6 Q44.6 107.8 53.6 111 L54.6 113.4 Q44.6 110.6 34.8 113.6 Z" fill="#f8fafc"/><ellipse cx="42" cy="106.2" rx="5.6" ry="1.9" fill="#f2b233" stroke="#050507" stroke-width="1.2"/><g transform="translate(128 0) scale(-1 1)"><path d="M42 100 L42 108" stroke="#050507" stroke-width="7" stroke-linecap="round"/><path d="M42 100 L42 108" stroke="#1c1c23" stroke-width="3.4" stroke-linecap="round"/><rect x="31.5" y="114.6" width="24" height="4.6" rx="2.3" fill="#050507"/><path d="M32.4 115.4 Q32 107.6 42.4 106.8 Q52.6 106.6 55 112.2 L55.4 115.4 Z" fill="#d42330" stroke="#050507" stroke-width="2.4" stroke-linejoin="round"/><path d="M36 110.6 Q44.6 107.8 53.6 111 L54.6 113.4 Q44.6 110.6 34.8 113.6 Z" fill="#f8fafc"/><ellipse cx="42" cy="106.2" rx="5.6" ry="1.9" fill="#f2b233" stroke="#050507" stroke-width="1.2"/></g>
<rect x="28" y="24" width="72" height="82" rx="22" fill="url(#hb)" stroke="#050507" stroke-width="5" paint-order="stroke"/>
<g clip-path="url(#hc)">
<path d="M58.6 18 L69.4 18 L64 47 Z" fill="#d42330"/><path d="M62 18 L64.6 18 L64 40 Z" fill="#ef4651"/>
<ellipse cx="45" cy="33" rx="12" ry="5.5" fill="#ffffff" opacity="0.1" transform="rotate(-22 45 33)"/>
<path d="M49 108 C49.6 102.6 52.4 99.6 56.4 98.6 C55 101.4 55.6 103.4 57.6 104.2 C57.4 98 60.4 93.6 64.6 91.4 C62.8 96 63.6 99.8 66.2 101.6 C66.8 97.6 69.6 95.2 73.4 95 C71.4 98 71.2 101 72.4 103.4 C74.2 101.6 76.6 100.8 79.2 101.4 C77.8 103.2 78.2 105.6 79.4 108 Z" fill="#f8fafc" stroke="#050507" stroke-width="1.8" stroke-linejoin="round"/>
</g>
<path d="M38.4 74.6 Q38.6 69.4 45.6 70.6 Q55.4 72.4 60.4 66.2 Q64 61.4 67.6 66.2 Q72.6 72.4 82.4 70.6 Q89.4 69.4 89.6 74.6 Q89.4 88.8 64 89.6 Q38.6 88.8 38.4 74.6 Z" fill="#f4c99a" stroke="#050507" stroke-width="2.2" stroke-linejoin="round"/>
<path d="M44 84 Q64 92 84 84" fill="none" stroke="#dca46e" stroke-width="1.6" stroke-linecap="round" opacity="0.7"/>
<ellipse cx="64" cy="72.6" rx="2.8" ry="2.1" fill="#050507"/><circle cx="63.2" cy="72" r="0.7" fill="#fff" opacity="0.8"/>
<path d="M55.6 78 Q64 90 72.4 78 Q64 81 55.6 78 Z" fill="#3a0b10" stroke="#050507" stroke-width="2.2" stroke-linejoin="round"/><path d="M60 84.4 Q64 81.8 68 84.4 Q64 87 60 84.4 Z" fill="#f472b6"/><path d="M58.6 79.4 L60 82.6 L61.4 79.8 Z M66.6 79.8 L68 82.6 L69.4 79.4 Z" fill="#fff"/>

</svg>
