<svg xmlns="http://www.w3.org/2000/svg" viewBox="0 0 128 128" width="256" height="256">
<clipPath id="el"><path d="M43.44 53.08 A9.4 9.4 0 1 0 57.22 64.52 Z"/></clipPath><path d="M43.44 53.08 A9.4 9.4 0 1 0 57.22 64.52 Z" fill="#f04848"/><g clip-path="url(#el)"><circle cx="48.5" cy="70" r="9.5" fill="#b91c1c"/><circle cx="48.5" cy="67" r="8.6" fill="#f04848"/></g><path d="M50.4 60.89999999999999 Q52.199999999999996 64.6 50.4 68.3 Q48.6 64.6 50.4 60.89999999999999 Z" fill="#1b0a2e"/><circle cx="47.8" cy="59.8" r="1.7" fill="#fff"/><path d="M43.44 53.08 A9.4 9.4 0 1 0 57.22 64.52 Z" fill="none" stroke="#1b0a2e" stroke-width="3" stroke-linejoin="round"/><path d="M37.5 48.1 L60.5 67.3" fill="none" stroke="#1b0a2e" stroke-width="4.6" stroke-linecap="round" stroke-linejoin="round"/><g transform="translate(128 0) scale(-1 1)"><clipPath id="er"><path d="M43.44 53.08 A9.4 9.4 0 1 0 57.22 64.52 Z"/></clipPath><path d="M43.44 53.08 A9.4 9.4 0 1 0 57.22 64.52 Z" fill="#f04848"/><g clip-path="url(#er)"><circle cx="48.5" cy="70" r="9.5" fill="#b91c1c"/><circle cx="48.5" cy="67" r="8.6" fill="#f04848"/></g><path d="M50.4 60.89999999999999 Q52.199999999999996 64.6 50.4 68.3 Q48.6 64.6 50.4 60.89999999999999 Z" fill="#1b0a2e"/><circle cx="47.8" cy="59.8" r="1.7" fill="#fff"/><path d="M43.44 53.08 A9.4 9.4 0 1 0 57.22 64.52 Z" fill="none" stroke="#1b0a2e" stroke-width="3" stroke-linejoin="round"/><path d="M37.5 48.1 L60.5 67.3" fill="none" stroke="#1b0a2e" stroke-width="4.6" stroke-linecap="round" stroke-linejoin="round"/></g>
</svg>
