<svg xmlns="http://www.w3.org/2000/svg" viewBox="0 0 128 128" width="256" height="256">
<defs><linearGradient id="g" x1="0" y1="0" x2="0" y2="1"><stop offset="0" stop-color="#fca5a5"/><stop offset="1" stop-color="#dc2626"/></linearGradient></defs>
<rect x="60" y="6" width="8" height="116" rx="4" fill="#991b1b" stroke="#06140b" stroke-width="5" paint-order="stroke"/>

<rect x="28" y="24" width="72" height="82" rx="22" fill="url(#g)" stroke="#06140b" stroke-width="5" paint-order="stroke"/>
<ellipse cx="42" cy="75" rx="7" ry="4.5" fill="#f9a8d4" opacity="0.55"/><ellipse cx="86" cy="75" rx="7" ry="4.5" fill="#f9a8d4" opacity="0.55"/>
<path d="M41 45 L57 51" fill="none" stroke="#0b1f12" stroke-width="4" stroke-linecap="round" stroke-linejoin="round"/><path d="M87 45 L71 51" fill="none" stroke="#0b1f12" stroke-width="4" stroke-linecap="round" stroke-linejoin="round"/><path d="M57 81 L71 81" fill="none" stroke="#0b1f12" stroke-width="4" stroke-linecap="round" stroke-linejoin="round"/>
<path d="M96 84 L104 92" stroke="#06140b" stroke-width="10" stroke-linecap="round"/><path d="M96 84 L104 92" stroke="#dc2626" stroke-width="5" stroke-linecap="round"/><polygon points="121.9,97.7 113.7,105.9 102.3,105.9 94.1,97.7 94.1,86.3 102.3,78.1 113.7,78.1 121.9,86.3" fill="#ef4444" stroke="#fff" stroke-width="2.5"/><text x="108" y="95" font-family="Arial, sans-serif" font-size="8" font-weight="700" fill="#fff" text-anchor="middle">STOP</text>
</svg>
