<svg xmlns="http://www.w3.org/2000/svg" viewBox="0 0 128 128" width="256" height="256">
<defs><linearGradient id="g" x1="0" y1="0" x2="0" y2="1"><stop offset="0" stop-color="#bbf7d0"/><stop offset="1" stop-color="#5f8f73"/></linearGradient></defs>
<rect x="60" y="6" width="8" height="116" rx="4" fill="#3f6b52" stroke="#06140b" stroke-width="5" paint-order="stroke"/>
<path d="M97 32 C93 39 91 43 94 47 C97 50 102 48 102 44 C102 41 100 38 97 32 Z" fill="#7dd3fc" stroke="#0b1f12" stroke-width="2"/>
<rect x="28" y="24" width="72" height="82" rx="22" fill="url(#g)" stroke="#06140b" stroke-width="5" paint-order="stroke"/>
<ellipse cx="42" cy="75" rx="7" ry="4.5" fill="#f9a8d4" opacity="0.3"/><ellipse cx="86" cy="75" rx="7" ry="4.5" fill="#f9a8d4" opacity="0.3"/>
<path d="M42.5 60 A7.5 8 0 0 0 57.5 60 Z" fill="#0b1f12"/><path d="M41 60 L59 60" fill="none" stroke="#0b1f12" stroke-width="3" stroke-linecap="round" stroke-linejoin="round"/><path d="M70.5 60 A7.5 8 0 0 0 85.5 60 Z" fill="#0b1f12"/><path d="M69 60 L87 60" fill="none" stroke="#0b1f12" stroke-width="3" stroke-linecap="round" stroke-linejoin="round"/><path d="M57 81 L71 81" fill="none" stroke="#0b1f12" stroke-width="4" stroke-linecap="round" stroke-linejoin="round"/>

</svg>
